# xmcd CD database file
#
# Track frame offsets:
#	150
#	11483
#	25161
#	35867
#	47060
#	58290
#	70985
#	82693
#	93351
#	106200
#	116794
#	128190
#	137729
#	148598
#
# Disc length: 2102 seconds
#
# Revision: 0
# Processed by: cddbd v1.5.2PL0 Copyright (c) Steve Scherf et al.
# Submitted via: CDex 1.70beta2
#
DISCID=c308340e
DTITLE=gerald poudrier - une larme dans ma biere
DYEAR=1900
DGENRE=Country
TTITLE0=jambalaya
TTITLE1=le seigneur qui t'appelle
TTITLE2=je n'y peu rien
TTITLE3=elle est parti pour toujours
TTITLE4=je n'ai plus d'espoir en ton amour
TTITLE5=l'anglaise qui a su me plaire
TTITLE6=pourrais-tu etre triste comme moi
TTITLE7=la richesse fais pas le bonheur
TTITLE8=une larme dans ma biere
TTITLE9=notre maison n'est plus un foyer
TTITLE10=ton coeur infidele
TTITLE11=je me pretend au bout de mes peines
TTITLE12=i can't get you off of my mind
TTITLE13=if you'll be a baby to me
EXTD=
EXTT0=
EXTT1=
EXTT2=
EXTT3=
EXTT4=
EXTT5=
EXTT6=
EXTT7=
EXTT8=
EXTT9=
EXTT10=
EXTT11=
EXTT12=
EXTT13=
PLAYORDER=
